<?xml version="1.0" standalone="no"?><!DOCTYPE svg PUBLIC "-//W3C//DTD SVG 1.1//EN" "http://www.w3.org/Graphics/SVG/1.1/DTD/svg11.dtd"><svg t="1548226420656" class="icon" style="" viewBox="0 0 1024 1024" version="1.1" xmlns="http://www.w3.org/2000/svg" p-id="2147" xmlns:xlink="http://www.w3.org/1999/xlink" width="200" height="200"><defs><style type="text/css"></style></defs><path d="M670.4 603.2s-73.6-129.6-9.6-136c63.2-6.4 9.6 136 9.6 136zM883.2 736s101.6-108.8 127.2-49.6c24 58.4-127.2 49.6-127.2 49.6z" fill="#F6CA50" p-id="2148"></path><path d="M970.4 544c0 122.4-60 250.4-131.2 312-48 48-118.4 60.8-173.6 40-16.8-6.4-86.4-46.4-84.8-123.2 3.2-185.6 182.4-285.6 211.2-368 27.2-77.6 16-127.2-17.6-162.4-82.4-87.2-188-37.6-240 7.2-122.4 104.8 12-88 12-88L484.8 136c-8-1.6-8-12.8 0-14.4 72.8-15.2 262.4-30.4 403.2 168 52 71.2 82.4 159.2 82.4 254.4z" fill="#E94619" p-id="2149"></path><path d="M652 582.4s21.6 92 96.8 148c56.8 42.4 174.4 8.8 174.4 8.8-23.2 48-52.8 88.8-84.8 116.8-48 48-118.4 60.8-173.6 40-16.8-6.4-86.4-46.4-84.8-123.2 1.6-76 33.6-138.4 72-190.4z" fill="#F6CA50" p-id="2150"></path><path d="M632 752.8m-18.4 0a18.4 18.4 0 1 0 36.8 0 18.4 18.4 0 1 0-36.8 0Z" fill="#FFFFFF" p-id="2151"></path><path d="M653.6 752.8c0 12-9.6 21.6-21.6 21.6-12 0-21.6-9.6-21.6-21.6 0-12 9.6-21.6 21.6-21.6 12 0 21.6 9.6 21.6 21.6z m-7.2 0c0-8-6.4-14.4-14.4-14.4s-14.4 6.4-14.4 14.4 6.4 14.4 14.4 14.4 14.4-6.4 14.4-14.4z" fill="#B22823" p-id="2152"></path><path d="M632 752.8m-11.2 0a11.2 11.2 0 1 0 22.4 0 11.2 11.2 0 1 0-22.4 0Z" fill="#B22823" p-id="2153"></path><path d="M765.6 835.2m-18.4 0a18.4 18.4 0 1 0 36.8 0 18.4 18.4 0 1 0-36.8 0Z" fill="#FFFFFF" p-id="2154"></path><path d="M787.2 835.2c0 12-9.6 21.6-21.6 21.6-12 0-21.6-9.6-21.6-21.6 0-12 9.6-21.6 21.6-21.6 12 0 21.6 9.6 21.6 21.6z m-7.2 0c0-8-6.4-14.4-14.4-14.4s-14.4 6.4-14.4 14.4 6.4 14.4 14.4 14.4 14.4-6.4 14.4-14.4z" fill="#B22823" p-id="2155"></path><path d="M765.6 835.2m-11.2 0a11.2 11.2 0 1 0 22.4 0 11.2 11.2 0 1 0-22.4 0Z" fill="#B22823" p-id="2156"></path><path d="M787.2 704.8c-0.8 1.6-3.2 2.4-4.8 1.6-1.6-0.8-2.4-3.2-1.6-4.8 1.6-3.2 186.4-326.4 12-472-135.2-112.8-243.2-64.8-244.8-64-0.8 0.8-2.4 0-3.2-0.8 1.6-1.6 2.4-3.2 2.4-3.2L544 160c0-0.8 0.8-1.6 1.6-1.6 0.8-0.8 23.2-9.6 60-9.6 4 0 8.8 0 13.6 0.8 40.8 2.4 106.4 14.4 178.4 75.2 178.4 148-8.8 476.8-10.4 480z" fill="#B22823" p-id="2157"></path><path d="M735.2 549.6c-11.2 0-26.4 4.8-32 6.4-1.6 0.8-3.2 2.4-2.4 4.8 0.8 1.6 2.4 3.2 4.8 2.4 14.4-4.8 32-8 36-4.8 0 0 4 3.2 3.2 22.4 0 4 1.6 7.2 4.8 8.8 3.2 2.4 6.4 2.4 10.4 0.8 16.8-6.4 25.6-7.2 27.2-5.6 4 3.2 2.4 20.8-1.6 36.8-0.8 1.6 0.8 4 2.4 4 1.6 0.8 4-0.8 4-2.4 1.6-8.8 8-36.8-1.6-44-1.6-1.6-8-6.4-34.4 4-0.8 0.8-2.4 0-3.2 0s-1.6-1.6-1.6-3.2c0-22.4-4.8-26.4-6.4-28-0.8-1.6-4.8-2.4-9.6-2.4zM791.2 464.8c-10.4 0-24.8 7.2-30.4 9.6-1.6 0.8-2.4 3.2-1.6 4.8 0.8 1.6 3.2 2.4 4.8 1.6 12-5.6 26.4-10.4 29.6-8 1.6 0.8 4 5.6 5.6 18.4 0 3.2 2.4 6.4 5.6 8 3.2 1.6 6.4 1.6 9.6 0 14.4-8 20.8-8.8 22.4-8 3.2 1.6 4 16 2.4 31.2 0 2.4 1.6 4 3.2 4 2.4 0 4-1.6 4-3.2 0.8-7.2 2.4-32.8-6.4-38.4-3.2-2.4-10.4-3.2-29.6 7.2-0.8 0.8-2.4 0-2.4 0s-1.6-0.8-1.6-2.4c-2.4-17.6-6.4-22.4-8.8-24-1.6 0-4-0.8-6.4-0.8zM900 517.6c-9.6 0-26.4 11.2-31.2 14.4-1.6 0.8-2.4 3.2-0.8 4.8 0.8 1.6 3.2 2.4 4.8 0.8 10.4-7.2 24-14.4 28-12.8 1.6 0.8 4.8 4.8 8 16.8 0.8 3.2 3.2 5.6 6.4 6.4 3.2 0.8 6.4 0 8.8-1.6 12.8-10.4 19.2-12 20.8-11.2 3.2 1.6 7.2 15.2 8 30.4 0 2.4 1.6 3.2 4 3.2s3.2-1.6 3.2-4c-0.8-7.2-3.2-32.8-12.8-36.8-2.4-0.8-8.8-3.2-28 12-0.8 0.8-2.4 0.8-2.4 0.8-0.8 0-1.6-0.8-1.6-1.6-4.8-17.6-9.6-20.8-12.8-21.6h-2.4zM930.4 416c-3.2 0-8.8 2.4-16.8 18.4l-0.8 0.8c-0.8 0-0.8 0-1.6-0.8-9.6-12-14.4-13.6-16.8-13.6-8 0-17.6 14.4-21.6 20.8-0.8 1.6-0.8 4 1.6 4.8 1.6 0.8 4 0.8 4.8-1.6 4.8-8.8 12-17.6 15.2-17.6 0 0 3.2 0 12 11.2 2.4 2.4 4.8 4 8 3.2 2.4 0 4.8-1.6 6.4-4.8 5.6-11.2 9.6-14.4 10.4-14.4 2.4 0 10.4 10.4 16 20.8 0.8 1.6 3.2 2.4 4.8 1.6 1.6-0.8 2.4-3.2 1.6-4.8-4-7.2-14.4-24-23.2-24 0.8 0 0.8 0 0 0zM865.6 619.2c-11.2 0-26.4 4.8-32 6.4-1.6 0.8-3.2 2.4-2.4 4.8 0.8 1.6 2.4 3.2 4.8 2.4 14.4-4.8 32-8 36-4.8 0 0 4 3.2 3.2 22.4 0 4 1.6 7.2 4.8 8.8 3.2 2.4 6.4 2.4 10.4 0.8 16.8-6.4 25.6-7.2 27.2-5.6 4 3.2 2.4 20.8-1.6 36.8-0.8 1.6 0.8 4 2.4 4 1.6 0.8 4-0.8 4-2.4 1.6-8.8 8-36.8-1.6-44-1.6-1.6-8-6.4-34.4 4-0.8 0.8-2.4 0-3.2 0-0.8-0.8-1.6-1.6-1.6-3.2 0-22.4-4.8-26.4-6.4-28-0.8-1.6-4.8-2.4-9.6-2.4z" fill="#B22823" p-id="2158"></path><path d="M349.6 416s73.6 129.6 9.6 136c-63.2 6.4-9.6-136-9.6-136zM136.8 283.2S35.2 392 9.6 332.8c-24-58.4 127.2-49.6 127.2-49.6z" fill="#F6CA50" p-id="2159"></path><path d="M49.6 476c0-122.4 60-250.4 131.2-312 48-48 118.4-60.8 173.6-40 16.8 6.4 86.4 46.4 84.8 123.2-3.2 185.6-182.4 285.6-211.2 368-27.2 77.6-16 127.2 17.6 162.4 82.4 87.2 188 37.6 240-7.2 122.4-104.8-12 88-12 88l61.6 24.8c8 1.6 8 12.8 0 14.4-72.8 15.2-262.4 30.4-403.2-168C80 658.4 49.6 570.4 49.6 476z" fill="#E94619" p-id="2160"></path><path d="M367.2 436.8s-21.6-92-96.8-148c-56.8-42.4-174.4-8-174.4-8 23.2-48 52.8-88.8 84.8-116.8 48-48 118.4-60.8 173.6-40 16.8 6.4 86.4 46.4 84.8 123.2-1.6 75.2-32.8 137.6-72 189.6z" fill="#F6CA50" p-id="2161"></path><path d="M388 266.4m-18.4 0a18.4 18.4 0 1 0 36.8 0 18.4 18.4 0 1 0-36.8 0Z" fill="#FFFFFF" p-id="2162"></path><path d="M365.6 266.4c0-12 9.6-21.6 21.6-21.6 12 0 21.6 9.6 21.6 21.6 0 12-9.6 21.6-21.6 21.6-11.2 0-21.6-9.6-21.6-21.6z m8 0c0 8 6.4 14.4 14.4 14.4s14.4-6.4 14.4-14.4-6.4-14.4-14.4-14.4-14.4 6.4-14.4 14.4z" fill="#B22823" p-id="2163"></path><path d="M388 266.4m-11.2 0a11.2 11.2 0 1 0 22.4 0 11.2 11.2 0 1 0-22.4 0Z" fill="#B22823" p-id="2164"></path><path d="M254.4 184m-18.4 0a18.4 18.4 0 1 0 36.8 0 18.4 18.4 0 1 0-36.8 0Z" fill="#FFFFFF" p-id="2165"></path><path d="M232 184c0-12 9.6-21.6 21.6-21.6 12 0 21.6 9.6 21.6 21.6s-9.6 21.6-21.6 21.6c-11.2 0-21.6-9.6-21.6-21.6z m7.2 0c0 8 6.4 14.4 14.4 14.4s14.4-6.4 14.4-14.4-6.4-14.4-14.4-14.4-14.4 6.4-14.4 14.4z" fill="#B22823" p-id="2166"></path><path d="M254.4 184m-11.2 0a11.2 11.2 0 1 0 22.4 0 11.2 11.2 0 1 0-22.4 0Z" fill="#B22823" p-id="2167"></path><path d="M232.8 314.4c0.8-1.6 3.2-2.4 4.8-1.6 1.6 0.8 2.4 3.2 1.6 4.8-1.6 3.2-186.4 326.4-12 472 135.2 112.8 243.2 64.8 244.8 64 0.8-0.8 2.4 0 3.2 0.8-1.6 1.6-2.4 3.2-2.4 3.2l3.2 1.6c0 0.8-0.8 1.6-1.6 1.6-0.8 0.8-23.2 9.6-60 9.6-4 0-8.8 0-13.6-0.8-40.8-2.4-106.4-14.4-178.4-75.2-179.2-148 8.8-476 10.4-480z" fill="#B22823" p-id="2168"></path><path d="M284 469.6c11.2 0 26.4-4.8 32-6.4 1.6-0.8 3.2-2.4 2.4-4.8-0.8-1.6-2.4-3.2-4.8-2.4-14.4 4.8-32 8-36 4.8 0 0-4-3.2-3.2-22.4 0-4-1.6-7.2-4.8-8.8-3.2-2.4-6.4-2.4-10.4-0.8-16.8 6.4-25.6 7.2-27.2 5.6-4-3.2-2.4-20.8 1.6-36.8 0.8-1.6-0.8-4-2.4-4-1.6-0.8-4 0.8-4 2.4-1.6 8.8-8 36.8 1.6 44 1.6 1.6 8 6.4 34.4-4 0.8-0.8 2.4 0 3.2 0 0.8 0.8 1.6 1.6 1.6 3.2 0 22.4 4.8 26.4 6.4 28 1.6 1.6 5.6 2.4 9.6 2.4zM228 554.4c10.4 0 24.8-7.2 30.4-9.6 1.6-0.8 2.4-3.2 1.6-4.8-0.8-1.6-3.2-2.4-4.8-1.6-12 5.6-26.4 10.4-29.6 8-1.6-0.8-4-5.6-5.6-18.4 0-3.2-2.4-6.4-5.6-8-3.2-1.6-6.4-1.6-9.6 0-14.4 8-20.8 8.8-22.4 8-3.2-1.6-4-16-2.4-31.2 0-2.4-1.6-4-3.2-4-2.4 0-4 1.6-4 3.2-0.8 7.2-2.4 32.8 6.4 38.4 3.2 2.4 10.4 3.2 29.6-7.2 0.8-0.8 2.4 0 2.4 0s1.6 0.8 1.6 2.4c2.4 17.6 6.4 22.4 8.8 24 1.6 0 4 0.8 6.4 0.8zM120 501.6c9.6 0 26.4-11.2 31.2-14.4 1.6-0.8 2.4-3.2 0.8-4.8-0.8-1.6-3.2-2.4-4.8-0.8-10.4 7.2-24 14.4-28 12.8-1.6-0.8-4.8-4.8-8-16.8-0.8-3.2-3.2-5.6-6.4-6.4-3.2-0.8-6.4 0-8.8 1.6-12.8 10.4-19.2 12-20.8 11.2-3.2-1.6-7.2-15.2-8-30.4 0-2.4-1.6-3.2-4-3.2s-3.2 1.6-3.2 4c0.8 7.2 3.2 32.8 12.8 36.8 2.4 0.8 8.8 3.2 28-12 0.8-0.8 2.4-0.8 2.4-0.8 0.8 0 1.6 0.8 1.6 1.6 4.8 17.6 9.6 20.8 12.8 21.6h2.4zM88.8 604c3.2 0 8.8-2.4 16.8-18.4l0.8-0.8c0.8 0 0.8 0 1.6 0.8 9.6 12 14.4 13.6 16.8 13.6 8 0 17.6-14.4 21.6-20.8 0.8-1.6 0.8-4-1.6-4.8-1.6-0.8-4-0.8-4.8 1.6C135.2 584 128 592 125.6 592c0 0-3.2 0-12-11.2-2.4-2.4-4.8-4-8-3.2-2.4 0-4.8 1.6-6.4 4.8-5.6 11.2-9.6 14.4-10.4 14.4-2.4 0-10.4-10.4-16-20.8-0.8-1.6-3.2-2.4-4.8-1.6-1.6 0.8-2.4 3.2-1.6 4.8 4 7.2 13.6 24 22.4 24.8zM153.6 400c11.2 0 26.4-4.8 32-6.4 1.6-0.8 3.2-2.4 2.4-4.8-0.8-1.6-2.4-3.2-4.8-2.4-14.4 4.8-32 8-36 4.8 0 0-4-3.2-3.2-22.4 0-4-1.6-7.2-4.8-8.8-3.2-2.4-6.4-2.4-10.4-0.8-16.8 6.4-25.6 7.2-27.2 5.6-4-3.2-2.4-20.8 1.6-36.8 0.8-1.6-0.8-4-2.4-4-1.6-0.8-4 0.8-4 2.4-1.6 8.8-8 36.8 1.6 44 1.6 1.6 8 6.4 34.4-4 0.8-0.8 2.4 0 3.2 0s1.6 1.6 1.6 3.2c0 22.4 4.8 26.4 6.4 28 1.6 2.4 5.6 2.4 9.6 2.4z" fill="#B22823" p-id="2169"></path></svg>